<?xml version="1.0" encoding="utf-8"?>
<!-- Generator: Adobe Illustrator 21.1.0, SVG Export Plug-In . SVG Version: 6.00 Build 0)  -->
<svg version="1.1" id="signin" xmlns="http://www.w3.org/2000/svg" xmlns:xlink="http://www.w3.org/1999/xlink" x="0px" y="0px"
	 viewBox="0 0 24 24" style="enable-background:new 0 0 24 24;" xml:space="preserve">
<title>icon-sign-in</title>
<path d="M8,10c2.8,0,5-2.2,5-5s-2.2-5-5-5-5,2.2-5,5,2.2,5,5,5zm0-8c1.7,0,3,1.3,3,3S9.7,8,8,8,5,6.7,5,5s1.3-3,3-3zM15.9,18.9c-.5-3.5-3.3-6.3-6.8-6.8-2.1-.3-4.2.2-5.9,1.5S.4,16.7.1,18.9c-.1.5.3,1,.8,1.1H1c.5,0,.9-.4,1-.9.5-3.3,3.5-5.5,6.8-5.1,2.2.3,4.1,1.9,4.8,3.9H5c-.6,0-1,.4-1,1s.4,1,1,1h11.1l-.2-1z"/>
</svg>

<svg id="icons" xmlns="http://www.w3.org/2000/svg" viewBox="0 0 24 24">
<title>DataPortal-Icons</title>
<circle cx="12" cy="15.824" r="0.753"/>
<path d="M12,14.256a.75.75,0,0,1-.75-.75v-1c0-.529.419-.818.862-1.124.623-.43,1.138-.83,1.138-1.376A1.209,1.209,0,0,0,12,8.756a1.252,1.252,0,0,0-1.25,1.25.75.75,0,0,1-1.5,0A2.753,2.753,0,0,1,12,7.256a2.721,2.721,0,0,1,2.75,2.75,3.3,3.3,0,0,1-1.786,2.61c-.079.055-.152.1-.214.147v.743A.75.75,0,0,1,12,14.256Z"/>
<path d="M12,5a7,7,0,1,1-7,7,7.008,7.008,0,0,1,7-7m0-2a9,9,0,1,0,9,9,9,9,0,0,0-9-9Z"/>
</svg>