<svg width="297pt" height="297pt" fill-rule="evenodd" overflow="visible" stroke-linejoin="bevel" stroke-width=".501" version="1.1" viewBox="0 0 297 297" xmlns="http://www.w3.org/2000/svg">
  <g>
    <circle cx="148.5" cy="148.5" r="148.1" fill="#8300bf"/>
  </g>
  <g transform="matrix(1 0 0 -1 -1.725 -.6373)" fill="none" font-family="'Times New Roman'" font-size="16px" stroke="#000">
    <g transform="translate(4.5 -294.6)">
      <g fill="#fff" fill-rule="nonzero" stroke="none" stroke-linejoin="miter" stroke-width=".933">
        <path d="m206.8 173.7c-0.299 7.34-3.035 13.68-8.269 18.98-5.548 5.626-12.35 8.43-20.4 8.43h-65.15c-7.911 0-14.67-2.804-20.3-8.43-5.619-5.615-8.43-12.38-8.43-20.3v-16.65c0-7.915 2.811-14.68 8.43-20.3 5.622-5.615 12.38-8.426 20.3-8.426h65.15c0.971 0 1.456-0.418 1.456-1.247v-16.66c0-0.967-0.485-1.453-1.456-1.453l-93.82 0.138c0.298-7.339 3.069-13.68 8.37-18.98 5.622-5.623 12.38-8.43 20.3-8.43h65.15c8.046 0 14.85 2.807 20.4 8.43 5.547 5.618 8.329 12.38 8.329 20.29v16.66c0 7.903-2.782 14.67-8.329 20.29-5.548 5.615-12.35 8.43-20.4 8.43h-65.15c-0.971 0-1.456 0.415-1.456 1.251v16.65c0 0.971 0.485 1.46 1.456 1.46z"/>
        <path d="m159.2 251.5c0.612-0.079 1.228-0.142 1.836-0.232v38.69c-0.608 0.063-1.224 0.112-1.836 0.171z"/>
        <path d="m116.4 248.2c1.505 0.445 3.028 0.863 4.562 1.24v39.24c-1.523-0.261-3.054-0.511-4.562-0.813z"/>
        <path d="m145 290.7v-38.37c0.228 4e-3 0.452 0.019 0.683 0.019 0.695 0 1.374-0.041 2.061-0.053v38.37c-0.69 8e-3 -1.37 0.049-2.061 0.049-0.231 0-0.455-0.015-0.683-0.015z"/>
        <path d="m45.13 155.8c1.09 13.14 4.226 25.46 9.109 36.62v65.16c-3.159-2.699-6.205-5.529-9.109-8.505z"/>
        <path d="m59.39 202.6c2.479 4.319 5.234 8.419 8.254 12.27v52.78c-2.822-1.867-5.581-3.827-8.254-5.891z"/>
        <path d="m102.2 242.7c1.792 0.855 3.617 1.654 5.473 2.404v40.63c-1.837-0.492-3.67-1.008-5.473-1.575z"/>
        <path d="m73.71 221.9c2.281 2.405 4.675 4.689 7.176 6.844v46.61c-2.434-1.244-4.827-2.554-7.176-3.935z"/>
        <path d="m87.97 234.3c2.046 1.456 4.163 2.815 6.324 4.111v42.93c-2.135-0.818-4.245-1.687-6.324-2.602z"/>
        <path d="m130.8 251.3c1.191 0.168 2.39 0.325 3.596 0.456v38.51c-1.195-0.097-2.405-0.157-3.596-0.276z"/>
        <path d="m5.135 129.1c1.086-10.76 3.263-21.1 6.38-30.93v94.45c-3.117-9.837-5.294-20.18-6.38-30.93z"/>
        <path d="m39.98 243.5c-2.863-3.275-5.585-6.683-8.142-10.23v-175.8c2.557-3.547 5.279-6.955 8.142-10.23z"/>
        <path d="m172.6 248.8c0.904-0.247 1.8-0.504 2.688-0.773v39.69c-0.888 0.187-1.792 0.34-2.688 0.508z"/>
        <path d="m212.7 226.7c1.867-1.713 3.681-3.487 5.417-5.346v49.78c-1.78 1.06-3.584 2.087-5.417 3.069z"/>
        <path d="m25.66 223.9c-2.61-4.304-5.014-8.766-7.175-13.38v-130.2c2.161-4.619 4.565-9.076 7.175-13.38z"/>
        <path d="m232.4 261.4c-2.064 1.613-4.166 3.181-6.324 4.67v-54.39c2.273-3.147 4.394-6.429 6.324-9.856z"/>
        <path d="m186 244.1c1.214-0.531 2.412-1.094 3.596-1.669v41.52c-1.188 0.377-2.394 0.731-3.596 1.079z"/>
        <path d="m199.3 237.1c1.553-0.993 3.072-2.034 4.562-3.11v44.59c-1.508 0.672-3.028 1.318-4.562 1.941z"/>
        <path d="m232.4 88.74c-1.93-3.435-4.051-6.709-6.324-9.853v-54.22c2.158 1.493 4.26 3.061 6.324 4.674z"/>
        <path d="m246.6 42.15v206.5c-2.323 2.404-4.745 4.696-7.232 6.922v-68.95c4.656-12.57 7.205-26.44 7.205-41.19 0-14.86-2.549-28.78-7.205-41.37v-68.78c2.487 2.221 4.909 4.514 7.232 6.922z"/>
        <path d="m218.1 69.22c-1.736-1.852-3.55-3.622-5.417-5.332v-47.36c1.833 0.978 3.637 2.005 5.417 3.065z"/>
        <path d="m203.8 56.69c-1.49-1.071-3.009-2.106-4.562-3.095v-43.32c1.534 0.616 3.054 1.262 4.562 1.938z"/>
        <path d="m189.6 48.2c-1.188-0.567-2.382-1.131-3.596-1.654v-40.87c1.202 0.355 2.408 0.702 3.596 1.079z"/>
        <path d="m284.3 174.3c-1.049 5.682-2.412 11.22-4.05 16.61v-91.12c1.638 5.391 3.001 10.94 4.05 16.61z"/>
        <path d="m175.3 42.68c-0.888-0.269-1.784-0.526-2.688-0.765v-39.4c0.9 0.164 1.8 0.317 2.688 0.504z"/>
        <path d="m275.1 205.3c-2.614 6.186-5.611 12.13-8.994 17.8v-155.5c3.383 5.663 6.38 11.61 8.994 17.8z"/>
        <path d="m260.9 231.2c-2.55 3.677-5.268 7.22-8.142 10.62v-192.8c2.874 3.398 5.592 6.937 8.142 10.62z"/>
        <path d="m67.65 75.68c-3.024 3.845-5.779 7.941-8.254 12.26v-58.98c2.669-2.069 5.428-4.029 8.254-5.899z"/>
        <path d="m94.29 52.21c-2.161 1.292-4.278 2.644-6.324 4.092v-44.33c2.08-0.915 4.189-1.784 6.324-2.602z"/>
        <path d="m161.1 39.49c-0.608-0.086-1.224-0.154-1.836-0.232v-38.62c0.612 0.056 1.228 0.109 1.836 0.172z"/>
        <path d="m80.88 61.83c-2.501 2.147-4.898 4.421-7.176 6.817v-49.36c2.349-1.385 4.738-2.696 7.176-3.939z"/>
        <path d="m54.24 33.15v64.99c-4.883 11.16-8.016 23.51-9.109 36.73v-93.22c2.904-2.979 5.95-5.805 9.109-8.504z"/>
        <path d="m107.6 45.6c-1.856 0.743-3.681 1.538-5.473 2.393v-41.39c1.807-0.571 3.636-1.082 5.473-1.583z"/>
        <path d="m147.7 0.052v38.36c-0.691-0.011-1.37-0.045-2.065-0.045-0.227 0-0.451 0.012-0.679 0.015v-38.37c0.228-4e-3 0.452-0.019 0.679-0.019 0.695 0 1.374 0.045 2.065 0.052z"/>
        <path d="m134.3 38.97c-1.206 0.127-2.405 0.283-3.596 0.451v-38.68c1.188-0.12 2.397-0.183 3.596-0.273z"/>
        <path d="m121 41.31c-1.538 0.373-3.057 0.788-4.562 1.232v-39.63c1.508-0.306 3.039-0.556 4.562-0.814z"/>
      </g>
    </g>
  </g>
</svg>
