<?xml version="1.0" encoding="UTF-8"?>
<svg width="24px" height="24px" viewBox="0 0 24 24" version="1.1" xmlns="http://www.w3.org/2000/svg" xmlns:xlink="http://www.w3.org/1999/xlink">
    <title>oSPARC</title>
    <g id="oSPARC" stroke="none" stroke-width="1" fill="none" fill-rule="evenodd">
        <g id="Group-5-Copy" fill="#8300BF">
            <circle id="Oval-Copy" cx="12" cy="12" r="12"></circle>
        </g>
        <circle id="Oval" stroke="#FFFFFF" cx="12" cy="12" r="8.5"></circle>
        <path d="M7,14.6970681 L14.8735167,14.6970681 L14.8735167,13.1173916 L9.10522509,13.1173916 C7.7017417,13.1173916 7,12.6041878 7,11.5777804 C7,10.5513729 7,9.61006325 7,8.75385149 C7,7.517183 7.7017417,6.89884876 9.10522509,6.89884876 C11.2104502,6.89884876 12.7470335,6.89884876 14.8735167,6.89884876 C16.2911722,6.89884876 17,7.67017648 17,9.21283192 L9.10522509,9.21283192 L9.10522509,10.8345035 C11.5330973,10.8345035 13.4558612,10.8345035 14.8735167,10.8345035 C16.2911722,10.8345035 17,11.4721734 17,12.7475133 C17,13.0173853 17,13.7865434 17,15.0549876 C17,16.3234318 16.2911722,16.9576539 14.8735167,16.9576539 C12.4314724,16.9576539 10.5087085,16.9576539 9.10522509,16.9576539 C7.7017417,16.9576539 7,16.2041253 7,14.6970681 Z" id="Rectangle" fill="#FFFFFF"></path>
    </g>
</svg>